<?xml version="1.0" encoding="utf-8"?>
<!-- Generator: Adobe Illustrator 19.0.0, SVG Export Plug-In . SVG Version: 6.00 Build 0)  -->
<svg version="1.1" id="Слой_1" xmlns="http://www.w3.org/2000/svg" xmlns:xlink="http://www.w3.org/1999/xlink" x="0px" y="0px"
	 viewBox="0 0 437.1 101.1" style="enable-background:new 0 0 437.1 101.1;" xml:space="preserve">
<style type="text/css">
	.st0{enable-background:new    ;}
</style>
<g id="XMLID_41_" class="st0">
	<path id="XMLID_42_" d="M107.9,26.7c0,7.5-1.7,13.4-5.1,17.8c-2.4,3.2-5.6,5.4-9.6,6.7c-2,0.7-3.8,1-5.4,1c3.7,0.9,6.6,2.3,8.7,4.2
		c2.7,2.4,4,5.3,4,8.8c0,0.4,0,0.8,0,1c0,0.3-0.1,0.5-0.1,0.6c-0.7,6.9-2.8,12.1-6.2,15.7c-2.9,3-6.9,5-12.1,6.1
		c-3.4,0.7-8.5,1-15.2,1H3.4l18.8-75.6h64h3.2c5.3,0,9.3,0.6,11.9,1.8C105.7,17.7,107.9,21.4,107.9,26.7z M65.9,64.8
		c0-0.3,0.1-0.6,0.1-1.1c0-1.6-0.6-2.6-1.9-3.1c-0.7-0.3-1.9-0.4-3.7-0.4H45l-3.2,11.5h16.1c2.3,0,4.1-0.5,5.4-1.4
		C64.7,69.3,65.6,67.4,65.9,64.8z M72.5,39.7c0-1.7-0.6-3-1.9-3.7c-1-0.6-2.4-0.9-4.1-0.9H51.3l-2.7,11.4h15.2c2.5,0,4.5-0.4,6-1.3
		C71.6,44.1,72.5,42.2,72.5,39.7z"/>
	<path id="XMLID_46_" d="M164.2,13.9l-18.9,75.6h-35.5l18.8-75.6H164.2z"/>
	<path id="XMLID_48_" d="M266.9,26.7c0,7.5-1.7,13.4-5.1,17.8c-2.4,3.2-5.6,5.4-9.6,6.7c-2,0.7-3.8,1-5.4,1c3.7,0.9,6.6,2.3,8.7,4.2
		c2.7,2.4,4,5.3,4,8.8c0,0.4,0,0.8,0,1c0,0.3-0.1,0.5-0.1,0.6c-0.7,6.9-2.8,12.1-6.2,15.7c-2.9,3-6.9,5-12.1,6.1
		c-3.4,0.7-8.5,1-15.2,1h-63.7l18.8-75.6h64h3.2c5.3,0,9.3,0.6,11.9,1.8C264.8,17.7,266.9,21.4,266.9,26.7z M225,64.8
		c0-0.3,0.1-0.6,0.1-1.1c0-1.6-0.6-2.6-1.9-3.1c-0.7-0.3-1.9-0.4-3.7-0.4H204l-3.2,11.5h16.1c2.3,0,4.1-0.5,5.4-1.4
		C223.7,69.3,224.6,67.4,225,64.8z M231.6,39.7c0-1.7-0.6-3-1.9-3.7c-1-0.6-2.4-0.9-4.1-0.9h-15.3l-2.8,11.4h15.2
		c2.5,0,4.5-0.4,6-1.3C230.6,44.1,231.6,42.2,231.6,39.7z"/>
	<path id="XMLID_52_" d="M323.2,13.9l-18.9,75.6h-35.5l18.8-75.6H323.2z"/>
	<path id="XMLID_54_" d="M433.1,13.9L394,54.4l17.7,35.1h-37.5l-11.1-27.9l-6.8,27.9h-34.5l18.8-75.6h34.1l-7,27.9l22.1-27.9H433.1z
		"/>
</g>
</svg>
